<svg height="20" width="20" aria-hidden="true" role="presentation" focusable="false" xmlns="http://www.w3.org/2000/svg" xmlns:xlink="http://www.w3.org/1999/xlink" style="color: rgb(255, 255, 255); fill: rgb(255, 255, 255); color: rgb(255, 255, 255); fill: rgb(255, 255, 255); fill-opacity: 1; fill-rule: nonzero; stroke: none; stroke-opacity: 1; stroke-width: 1px; stroke-linecap: butt; stroke-linejoin: miter; stroke-miterlimit: 4; stroke-dasharray: none; stroke-dashoffset: 0px; opacity: 1; clip-rule: nonzero; vector-effect: none" viewBox="0 0 20 20"><g style="color: rgb(255, 255, 255); fill: rgb(255, 255, 255); fill-opacity: 1; fill-rule: nonzero; stroke: none; stroke-opacity: 1; stroke-width: 1px; stroke-linecap: butt; stroke-linejoin: miter; stroke-miterlimit: 4; stroke-dasharray: none; stroke-dashoffset: 0px; opacity: 1; clip-rule: nonzero; vector-effect: none; color: rgb(255, 255, 255); fill: rgb(255, 255, 255)"><g style="color: rgb(255, 255, 255); fill: rgb(50, 49, 48); fill-opacity: 1; fill-rule: nonzero; stroke: none; stroke-opacity: 1; stroke-width: 1px; stroke-linecap: butt; stroke-linejoin: miter; stroke-miterlimit: 4; stroke-dasharray: none; stroke-dashoffset: 0px; opacity: 1; clip-rule: nonzero; vector-effect: none"><title style="color: rgb(255, 255, 255); fill: rgb(50, 49, 48); fill-opacity: 1; fill-rule: nonzero; stroke: none; stroke-opacity: 1; stroke-width: 1px; stroke-linecap: butt; stroke-linejoin: miter; stroke-miterlimit: 4; stroke-dasharray: none; stroke-dashoffset: 0px; opacity: 1; clip-rule: nonzero; vector-effect: none"/><path d="M5.25 4a1.25 1.25 0 1 1-2.5 0 1.25 1.25 0 0 1 2.5 0m12 12a1.25 1.25 0 1 1-2.5 0 1.25 1.25 0 0 1 2.5 0M16 11.25a1.25 1.25 0 1 0 0-2.5 1.25 1.25 0 0 0 0 2.5M17.25 4a1.25 1.25 0 1 1-2.5 0 1.25 1.25 0 0 1 2.5 0M10 17.25a1.25 1.25 0 1 0 0-2.5 1.25 1.25 0 0 0 0 2.5M11.25 10a1.25 1.25 0 1 1-2.5 0 1.25 1.25 0 0 1 2.5 0M10 5.25a1.25 1.25 0 1 0 0-2.5 1.25 1.25 0 0 0 0 2.5M5.25 16a1.25 1.25 0 1 1-2.5 0 1.25 1.25 0 0 1 2.5 0M4 11.25a1.25 1.25 0 1 0 0-2.5 1.25 1.25 0 0 0 0 2.5" style="color: rgb(255, 255, 255); fill: rgb(50, 49, 48); fill-opacity: 1; fill-rule: nonzero; stroke: none; stroke-opacity: 1; stroke-width: 1px; stroke-linecap: butt; stroke-linejoin: miter; stroke-miterlimit: 4; stroke-dasharray: none; stroke-dashoffset: 0px; opacity: 1; clip-rule: nonzero; vector-effect: none"/></g></g></svg>