<svg xmlns="http://www.w3.org/2000/svg" xmlns:xlink="http://www.w3.org/1999/xlink" style="color: rgb(255, 255, 255); fill: rgb(50, 49, 48); color: rgb(255, 255, 255); fill: rgb(50, 49, 48); fill-opacity: 1; fill-rule: nonzero; stroke: none; stroke-opacity: 1; stroke-width: 1px; stroke-linecap: butt; stroke-linejoin: miter; stroke-miterlimit: 4; stroke-dasharray: none; stroke-dashoffset: 0px; opacity: 1; clip-rule: nonzero; vector-effect: none" viewBox="0 0 18 17" width="18" height="17"><defs style="color: rgb(255, 255, 255); fill: rgb(50, 49, 48); fill-opacity: 1; fill-rule: nonzero; stroke: none; stroke-opacity: 1; stroke-width: 1px; stroke-linecap: butt; stroke-linejoin: miter; stroke-miterlimit: 4; stroke-dasharray: none; stroke-dashoffset: 0px; opacity: 1; clip-rule: nonzero; vector-effect: none"><linearGradient id="b49cc61d-635f-45d1-a4e0-a2f918699022" x1="9" x2="9" y1=".9" y2="16.9" gradientUnits="userSpaceOnUse"><stop offset=".297" stop-color="#2886DE"/><stop offset="1" stop-color="#316BAA"/></linearGradient></defs><g><path fill="url(#b49cc61d-635f-45d1-a4e0-a2f918699022)" d="M8.078 16.9a3 3 0 0 0 .67-1.238l3.4-12.754a.01.01 0 0 1 .007-.008l.002-.004-.007.004c.066-.203-.008-.53-.312-.602-.357-.084-.555.092-.635.285l-.021.068-3.4 12.753a2.015 2.015 0 0 1-3.65.556L.27 9.834a1.75 1.75 0 0 1 0-1.867l3.94-6.25A1.75 1.75 0 0 1 5.69.9h4.228a3 3 0 0 0-.668 1.235L5.85 14.89l-.004.007-.002.006.004-.002c-.067.203.008.53.312.602.355.084.552-.09.634-.282q.013-.036.022-.074l3.4-12.753a2.01 2.01 0 0 1 3.643-.554l.003.005.003.004 3.92 6.297a1.43 1.43 0 0 1 0 1.51l-3.997 6.42a1.75 1.75 0 0 1-1.485.825z" style="color: rgb(255, 255, 255); fill: url(&quot;#b49cc61d-635f-45d1-a4e0-a2f918699022&quot;); fill-opacity: 1; fill-rule: nonzero; stroke: none; stroke-opacity: 1; stroke-width: 1px; stroke-linecap: butt; stroke-linejoin: miter; stroke-miterlimit: 4; stroke-dasharray: none; stroke-dashoffset: 0px; opacity: 1; clip-rule: nonzero; vector-effect: none"/><defs style="color: rgb(255, 255, 255); fill: none; fill-opacity: 1; fill-rule: nonzero; stroke: none; stroke-opacity: 1; stroke-width: 1px; stroke-linecap: butt; stroke-linejoin: miter; stroke-miterlimit: 4; stroke-dasharray: none; stroke-dashoffset: 0px; opacity: 1; clip-rule: nonzero; vector-effect: none"/></g></svg>