<svg height="16" width="17" aria-hidden="true" role="presentation" focusable="false" xmlns="http://www.w3.org/2000/svg" xmlns:xlink="http://www.w3.org/1999/xlink" style="color: rgb(255, 255, 255); fill: rgb(255, 255, 255); color: rgb(255, 255, 255); fill: rgb(255, 255, 255); fill-opacity: 1; fill-rule: nonzero; stroke: none; stroke-opacity: 1; stroke-width: 1px; stroke-linecap: butt; stroke-linejoin: miter; stroke-miterlimit: 4; stroke-dasharray: none; stroke-dashoffset: 0px; opacity: 1; clip-rule: nonzero; vector-effect: none" viewBox="0 0 17 16"><defs><radialGradient id="b49cc61d-635f-45d1-a4e0-a2f918699005" cx="0" cy="0" r="1" gradientTransform="rotate(-128.772 8.512 .33)scale(6.41931 6.01261)" gradientUnits="userSpaceOnUse"><stop offset=".096" stop-color="#00AEFF"/><stop offset=".773" stop-color="#2253CE"/><stop offset="1" stop-color="#0736C4"/></radialGradient><radialGradient id="b49cc61d-635f-45d1-a4e0-a2f918699006" cx="0" cy="0" r="1" gradientTransform="matrix(3.56223 4.4232 -4.3144 3.4746 3.806 11.066)" gradientUnits="userSpaceOnUse"><stop stop-color="#FFB657"/><stop offset=".634" stop-color="#FF5F3D"/><stop offset=".923" stop-color="#C02B3C"/></radialGradient><linearGradient id="b49cc61d-635f-45d1-a4e0-a2f918699008" x1="4.318" x2="5.151" y1="2.273" y2="11.9" gradientUnits="userSpaceOnUse"><stop offset=".156" stop-color="#0D91E1"/><stop offset=".487" stop-color="#52B471"/><stop offset=".652" stop-color="#98BD42"/><stop offset=".937" stop-color="#FFC800"/></linearGradient><linearGradient id="b49cc61d-635f-45d1-a4e0-a2f918699009" x1="5.046" x2="5.5" y1="1" y2="11.504" gradientUnits="userSpaceOnUse"><stop stop-color="#3DCBFF"/><stop offset=".247" stop-color="#0588F7" stop-opacity="0"/></linearGradient><radialGradient id="b49cc61d-635f-45d1-a4e0-a2f918699007" cx="0" cy="0" r="1" gradientTransform="matrix(-4.6081 13.17265 -15.78492 -5.52192 14.799 3.47)" gradientUnits="userSpaceOnUse"><stop offset=".066" stop-color="#8C48FF"/><stop offset=".5" stop-color="#F2598A"/><stop offset=".896" stop-color="#FFB152"/></radialGradient><linearGradient id="b49cc61d-635f-45d1-a4e0-a2f91869900a" x1="15.259" x2="15.253" y1="3.856" y2="6.717" gradientUnits="userSpaceOnUse"><stop offset=".058" stop-color="#F8ADFA"/><stop offset=".708" stop-color="#A86EDD" stop-opacity="0"/></linearGradient></defs><g style="color: rgb(255, 255, 255); fill: rgb(255, 255, 255); fill-opacity: 1; fill-rule: nonzero; stroke: none; stroke-opacity: 1; stroke-width: 1px; stroke-linecap: butt; stroke-linejoin: miter; stroke-miterlimit: 4; stroke-dasharray: none; stroke-dashoffset: 0px; opacity: 1; clip-rule: nonzero; vector-effect: none; color: rgb(255, 255, 255); fill: rgb(255, 255, 255)"><g style="color: rgb(255, 255, 255); fill: rgb(50, 49, 48); fill-opacity: 1; fill-rule: nonzero; stroke: none; stroke-opacity: 1; stroke-width: 1px; stroke-linecap: butt; stroke-linejoin: miter; stroke-miterlimit: 4; stroke-dasharray: none; stroke-dashoffset: 0px; opacity: 1; clip-rule: nonzero; vector-effect: none"><title style="color: rgb(255, 255, 255); fill: rgb(50, 49, 48); fill-opacity: 1; fill-rule: nonzero; stroke: none; stroke-opacity: 1; stroke-width: 1px; stroke-linecap: butt; stroke-linejoin: miter; stroke-miterlimit: 4; stroke-dasharray: none; stroke-dashoffset: 0px; opacity: 1; clip-rule: nonzero; vector-effect: none"/><path fill="url(#b49cc61d-635f-45d1-a4e0-a2f918699005)" d="M12.17 1.99A1.46 1.46 0 0 0 10.788 1h-.9c-.701 0-1.303.499-1.433 1.188l-.931 4.945.463-1.584a1.46 1.46 0 0 1 1.4-1.049h2.878l1.244 1.629L14.618 4.5h-.552c-.624 0-1.18-.398-1.38-.99z" style="color: rgb(255, 255, 255); fill: url(&quot;#b49cc61d-635f-45d1-a4e0-a2f918699005&quot;); fill-opacity: 1; fill-rule: nonzero; stroke: none; stroke-opacity: 1; stroke-width: 1px; stroke-linecap: butt; stroke-linejoin: miter; stroke-miterlimit: 4; stroke-dasharray: none; stroke-dashoffset: 0px; opacity: 1; clip-rule: nonzero; vector-effect: none"/><path fill="url(#b49cc61d-635f-45d1-a4e0-a2f918699006)" d="M5.003 14.004c.199.595.756.996 1.383.996h1.466c.796 0 1.445-.638 1.458-1.434l.073-4.431-.385 1.317a1.46 1.46 0 0 1-1.4 1.048h-2.89l-1.23-1.085L2.57 11.5h.547c.628 0 1.184.401 1.383.996z" style="color: rgb(255, 255, 255); fill: url(&quot;#b49cc61d-635f-45d1-a4e0-a2f918699006&quot;); fill-opacity: 1; fill-rule: nonzero; stroke: none; stroke-opacity: 1; stroke-width: 1px; stroke-linecap: butt; stroke-linejoin: miter; stroke-miterlimit: 4; stroke-dasharray: none; stroke-dashoffset: 0px; opacity: 1; clip-rule: nonzero; vector-effect: none"/><path fill="url(#b49cc61d-635f-45d1-a4e0-a2f918699008)" d="M10.5 1H4.668C3 1 2 3.202 1.334 5.405c-.79 2.609-1.823 6.099 1.167 6.099h2.69c.65 0 1.223-.431 1.402-1.058a770 770 0 0 1 1.855-6.402c.306-1.034.561-1.922.953-2.474.22-.31.585-.57 1.1-.57" style="color: rgb(255, 255, 255); fill: url(&quot;#b49cc61d-635f-45d1-a4e0-a2f918699008&quot;); fill-opacity: 1; fill-rule: nonzero; stroke: none; stroke-opacity: 1; stroke-width: 1px; stroke-linecap: butt; stroke-linejoin: miter; stroke-miterlimit: 4; stroke-dasharray: none; stroke-dashoffset: 0px; opacity: 1; clip-rule: nonzero; vector-effect: none"/><path fill="url(#b49cc61d-635f-45d1-a4e0-a2f918699009)" d="M10.5 1H4.668C3 1 2 3.202 1.334 5.405c-.79 2.609-1.823 6.099 1.167 6.099h2.69c.65 0 1.223-.431 1.402-1.058a770 770 0 0 1 1.855-6.402c.306-1.034.561-1.922.953-2.474.22-.31.585-.57 1.1-.57" style="color: rgb(255, 255, 255); fill: url(&quot;#b49cc61d-635f-45d1-a4e0-a2f918699009&quot;); fill-opacity: 1; fill-rule: nonzero; stroke: none; stroke-opacity: 1; stroke-width: 1px; stroke-linecap: butt; stroke-linejoin: miter; stroke-miterlimit: 4; stroke-dasharray: none; stroke-dashoffset: 0px; opacity: 1; clip-rule: nonzero; vector-effect: none"/><path fill="url(#b49cc61d-635f-45d1-a4e0-a2f918699007)" d="M6.5 15h5.832C14 15 15 12.798 15.665 10.596c.79-2.61 1.824-6.098-1.166-6.098h-2.69c-.651 0-1.223.43-1.402 1.057a772 772 0 0 1-1.855 6.401c-.306 1.034-.561 1.922-.953 2.475-.22.31-.586.569-1.1.569" style="color: rgb(255, 255, 255); fill: url(&quot;#b49cc61d-635f-45d1-a4e0-a2f918699007&quot;); fill-opacity: 1; fill-rule: nonzero; stroke: none; stroke-opacity: 1; stroke-width: 1px; stroke-linecap: butt; stroke-linejoin: miter; stroke-miterlimit: 4; stroke-dasharray: none; stroke-dashoffset: 0px; opacity: 1; clip-rule: nonzero; vector-effect: none"/><path fill="url(#b49cc61d-635f-45d1-a4e0-a2f91869900a)" d="M6.5 15h5.832C14 15 15 12.798 15.665 10.596c.79-2.61 1.824-6.098-1.166-6.098h-2.69c-.651 0-1.223.43-1.402 1.057a772 772 0 0 1-1.855 6.401c-.306 1.034-.561 1.922-.953 2.475-.22.31-.586.569-1.1.569" style="color: rgb(255, 255, 255); fill: url(&quot;#b49cc61d-635f-45d1-a4e0-a2f91869900a&quot;); fill-opacity: 1; fill-rule: nonzero; stroke: none; stroke-opacity: 1; stroke-width: 1px; stroke-linecap: butt; stroke-linejoin: miter; stroke-miterlimit: 4; stroke-dasharray: none; stroke-dashoffset: 0px; opacity: 1; clip-rule: nonzero; vector-effect: none"/><defs style="color: rgb(255, 255, 255); fill: rgb(50, 49, 48); fill-opacity: 1; fill-rule: nonzero; stroke: none; stroke-opacity: 1; stroke-width: 1px; stroke-linecap: butt; stroke-linejoin: miter; stroke-miterlimit: 4; stroke-dasharray: none; stroke-dashoffset: 0px; opacity: 1; clip-rule: nonzero; vector-effect: none"/></g></g></svg>