<svg viewBox="0 0 16 16" role="presentation" focusable="false" xmlns:svg="http://www.w3.org/2000/svg" xmlns:xlink="http://www.w3.org/1999/xlink" aria-hidden="true" xmlns="http://www.w3.org/2000/svg" style="color: rgb(41, 40, 39); fill: rgb(15, 15, 15); color: rgb(41, 40, 39); fill: rgb(15, 15, 15); fill-opacity: 1; fill-rule: nonzero; stroke: none; stroke-opacity: 1; stroke-width: 1px; stroke-linecap: butt; stroke-linejoin: miter; stroke-miterlimit: 4; stroke-dasharray: none; stroke-dashoffset: 0px; opacity: 1; clip-rule: nonzero; vector-effect: none" width="16" height="16"><g style="color: rgb(41, 40, 39); fill: rgb(15, 15, 15); fill-opacity: 1; fill-rule: nonzero; stroke: none; stroke-opacity: 1; stroke-width: 1px; stroke-linecap: butt; stroke-linejoin: miter; stroke-miterlimit: 4; stroke-dasharray: none; stroke-dashoffset: 0px; opacity: 1; clip-rule: nonzero; vector-effect: none"><path d="M0 0h12v15H0z" class="msportalfx-svg-c16" style="color: rgb(41, 40, 39); fill: rgb(57, 153, 198); fill-opacity: 1; fill-rule: nonzero; stroke: none; stroke-opacity: 1; stroke-width: 1px; stroke-linecap: butt; stroke-linejoin: miter; stroke-miterlimit: 4; stroke-dasharray: none; stroke-dashoffset: 0px; opacity: 1; clip-rule: nonzero; vector-effect: none"/><path opacity=".9" d="M1 1h10v13H1z" class="msportalfx-svg-c01" style="color: rgb(41, 40, 39); fill: rgb(255, 255, 255); fill-opacity: 1; fill-rule: nonzero; stroke: none; stroke-opacity: 1; stroke-width: 1px; stroke-linecap: butt; stroke-linejoin: miter; stroke-miterlimit: 4; stroke-dasharray: none; stroke-dashoffset: 0px; opacity: 0.9; clip-rule: nonzero; vector-effect: none"/><path d="M5.5 3H10v1H5.5zm0 4H9v1H5.5zm0 4H9v1H5.5z" class="msportalfx-svg-c16" style="color: rgb(41, 40, 39); fill: rgb(57, 153, 198); fill-opacity: 1; fill-rule: nonzero; stroke: none; stroke-opacity: 1; stroke-width: 1px; stroke-linecap: butt; stroke-linejoin: miter; stroke-miterlimit: 4; stroke-dasharray: none; stroke-dashoffset: 0px; opacity: 1; clip-rule: nonzero; vector-effect: none"/><path d="M15.227 16H8.773C8.346 16 8 15.667 8 15.256V5.755C8 5.34 8.353 5 8.784 5h6.443c.427 0 .773.333.773.744v9.512c0 .409-.348.744-.773.744z" class="msportalfx-svg-c05" style="color: rgb(41, 40, 39); fill: rgb(62, 62, 62); fill-opacity: 1; fill-rule: nonzero; stroke: none; stroke-opacity: 1; stroke-width: 1px; stroke-linecap: butt; stroke-linejoin: miter; stroke-miterlimit: 4; stroke-dasharray: none; stroke-dashoffset: 0px; opacity: 1; clip-rule: nonzero; vector-effect: none"/><path d="M9.24 6.25h5.496v8.5H9.24z" class="msportalfx-svg-c15" style="color: rgb(41, 40, 39); fill: rgb(89, 180, 217); fill-opacity: 1; fill-rule: nonzero; stroke: none; stroke-opacity: 1; stroke-width: 1px; stroke-linecap: butt; stroke-linejoin: miter; stroke-miterlimit: 4; stroke-dasharray: none; stroke-dashoffset: 0px; opacity: 1; clip-rule: nonzero; vector-effect: none"/><path opacity=".15" d="M13.72 5H8.784C8.351 5 8 5.338 8 5.755v9.495c0 .415.349.75.779.75h.675L13.72 5z" class="msportalfx-svg-c01" style="color: rgb(41, 40, 39); fill: rgb(255, 255, 255); fill-opacity: 1; fill-rule: nonzero; stroke: none; stroke-opacity: 1; stroke-width: 1px; stroke-linecap: butt; stroke-linejoin: miter; stroke-miterlimit: 4; stroke-dasharray: none; stroke-dashoffset: 0px; opacity: 0.15; clip-rule: nonzero; vector-effect: none"/><path d="M3 2v1H2v1h2V2zm0 5H2v1h2V6H3zm0 4H2v1h2v-2H3z" class="msportalfx-svg-c16" style="color: rgb(41, 40, 39); fill: rgb(57, 153, 198); fill-opacity: 1; fill-rule: nonzero; stroke: none; stroke-opacity: 1; stroke-width: 1px; stroke-linecap: butt; stroke-linejoin: miter; stroke-miterlimit: 4; stroke-dasharray: none; stroke-dashoffset: 0px; opacity: 1; clip-rule: nonzero; vector-effect: none"/></g></svg>