<svg height="18" width="18" aria-hidden="true" role="presentation" focusable="false" xmlns="http://www.w3.org/2000/svg" xmlns:xlink="http://www.w3.org/1999/xlink" style="color: rgb(41, 40, 39); fill: rgb(15, 15, 15); color: rgb(41, 40, 39); fill: rgb(15, 15, 15); fill-opacity: 1; fill-rule: nonzero; stroke: none; stroke-opacity: 1; stroke-width: 1px; stroke-linecap: butt; stroke-linejoin: miter; stroke-miterlimit: 4; stroke-dasharray: none; stroke-dashoffset: 0px; opacity: 1; clip-rule: nonzero; vector-effect: none" viewBox="0 0 18 18"><defs><linearGradient id="b49cc61d-635f-45d1-a4e0-a2f918699042" x1="9.66" y1="15.23" x2="9.66" y2="5.01" gradientTransform="rotate(-.06 -449.022 391.286)" gradientUnits="userSpaceOnUse"><stop offset="0" stop-color="#0078d4"/><stop offset=".82" stop-color="#5ea0ef"/></linearGradient></defs><g style="color: rgb(41, 40, 39); fill: rgb(15, 15, 15); fill-opacity: 1; fill-rule: nonzero; stroke: none; stroke-opacity: 1; stroke-width: 1px; stroke-linecap: butt; stroke-linejoin: miter; stroke-miterlimit: 4; stroke-dasharray: none; stroke-dashoffset: 0px; opacity: 1; clip-rule: nonzero; vector-effect: none; color: rgb(41, 40, 39); fill: rgb(15, 15, 15)"><g style="color: rgb(255, 255, 255); fill: rgb(50, 49, 48); fill-opacity: 1; fill-rule: nonzero; stroke: none; stroke-opacity: 1; stroke-width: 1px; stroke-linecap: butt; stroke-linejoin: miter; stroke-miterlimit: 4; stroke-dasharray: none; stroke-dashoffset: 0px; opacity: 1; clip-rule: nonzero; vector-effect: none"><title style="color: rgb(255, 255, 255); fill: rgb(50, 49, 48); fill-opacity: 1; fill-rule: nonzero; stroke: none; stroke-opacity: 1; stroke-width: 1px; stroke-linecap: butt; stroke-linejoin: miter; stroke-miterlimit: 4; stroke-dasharray: none; stroke-dashoffset: 0px; opacity: 1; clip-rule: nonzero; vector-effect: none"/><defs style="color: rgb(255, 255, 255); fill: rgb(50, 49, 48); fill-opacity: 1; fill-rule: nonzero; stroke: none; stroke-opacity: 1; stroke-width: 1px; stroke-linecap: butt; stroke-linejoin: miter; stroke-miterlimit: 4; stroke-dasharray: none; stroke-dashoffset: 0px; opacity: 1; clip-rule: nonzero; vector-effect: none"/><path d="M4.37 3.58h7.97v9.68H4.37z" class="msportalfx-svg-c01" style="color: rgb(255, 255, 255); fill: rgb(255, 255, 255); fill-opacity: 1; fill-rule: nonzero; stroke: none; stroke-opacity: 1; stroke-width: 1px; stroke-linecap: butt; stroke-linejoin: miter; stroke-miterlimit: 4; stroke-dasharray: none; stroke-dashoffset: 0px; opacity: 1; clip-rule: nonzero; vector-effect: none"/><path d="M5.08 13h-.46V3.83h7.48v3.94h.5V3.58a.25.25 0 0 0-.25-.25h-8a.28.28 0 0 0-.25.25v9.69a.27.27 0 0 0 .08.18.26.26 0 0 0 .17.07h.71Z" fill="#0078d4" style="color: rgb(255, 255, 255); fill: rgb(0, 120, 212); fill-opacity: 1; fill-rule: nonzero; stroke: none; stroke-opacity: 1; stroke-width: 1px; stroke-linecap: butt; stroke-linejoin: miter; stroke-miterlimit: 4; stroke-dasharray: none; stroke-dashoffset: 0px; opacity: 1; clip-rule: nonzero; vector-effect: none"/><path d="M9.84 4.61H5.42a.35.35 0 0 0-.35.39v9.38a.35.35 0 0 0 .35.34h7.68a.35.35 0 0 0 .34-.35V8.12a.35.35 0 0 0-.35-.35h-2.54a.35.35 0 0 1-.35-.35V5a.34.34 0 0 0-.36-.39Z" class="msportalfx-svg-c01" style="color: rgb(255, 255, 255); fill: rgb(255, 255, 255); fill-opacity: 1; fill-rule: nonzero; stroke: none; stroke-opacity: 1; stroke-width: 1px; stroke-linecap: butt; stroke-linejoin: miter; stroke-miterlimit: 4; stroke-dasharray: none; stroke-dashoffset: 0px; opacity: 1; clip-rule: nonzero; vector-effect: none"/><path d="M9.68 5.05V7.4a.86.86 0 0 0 .87.86H13v6H5.55V5.05h4.13m.17-.52H5.37a.36.36 0 0 0-.37.35v9.52a.36.36 0 0 0 .36.35h7.77a.35.35 0 0 0 .36-.35V8.09a.34.34 0 0 0-.36-.34h-2.57a.35.35 0 0 1-.35-.35V4.88a.36.36 0 0 0-.36-.35Z" fill="url(#b49cc61d-635f-45d1-a4e0-a2f918699042)" style="color: rgb(255, 255, 255); fill: url(&quot;#b49cc61d-635f-45d1-a4e0-a2f918699042&quot;); fill-opacity: 1; fill-rule: nonzero; stroke: none; stroke-opacity: 1; stroke-width: 1px; stroke-linecap: butt; stroke-linejoin: miter; stroke-miterlimit: 4; stroke-dasharray: none; stroke-dashoffset: 0px; opacity: 1; clip-rule: nonzero; vector-effect: none"/><path d="m13.36 7.81-3.28-3.2v2.61a.59.59 0 0 0 .59.6Z" fill="#0078d4" style="color: rgb(255, 255, 255); fill: rgb(0, 120, 212); fill-opacity: 1; fill-rule: nonzero; stroke: none; stroke-opacity: 1; stroke-width: 1px; stroke-linecap: butt; stroke-linejoin: miter; stroke-miterlimit: 4; stroke-dasharray: none; stroke-dashoffset: 0px; opacity: 1; clip-rule: nonzero; vector-effect: none"/><path d="M11.72 9.34h-5a.17.17 0 0 1-.18-.17.18.18 0 0 1 .22-.17h5a.18.18 0 0 1 .18.18.17.17 0 0 1-.22.16Zm0 1h-5a.18.18 0 0 1-.18-.18.18.18 0 0 1 .22-.16h5a.18.18 0 0 1 .18.17.18.18 0 0 1-.22.17Zm0 1.01h-5a.18.18 0 0 1-.18-.18.17.17 0 0 1 .22-.17h5a.17.17 0 0 1 .18.17.18.18 0 0 1-.22.18Z" fill="#4d4d4d" style="color: rgb(255, 255, 255); fill: rgb(77, 77, 77); fill-opacity: 1; fill-rule: nonzero; stroke: none; stroke-opacity: 1; stroke-width: 1px; stroke-linecap: butt; stroke-linejoin: miter; stroke-miterlimit: 4; stroke-dasharray: none; stroke-dashoffset: 0px; opacity: 1; clip-rule: nonzero; vector-effect: none"/><path d="M.5 15.39a.15.15 0 0 0 .09.14l1.23.69 2.1 1.17a.17.17 0 0 0 .23-.06l.71-1.18a.17.17 0 0 0-.06-.23l-2.46-1.37a.16.16 0 0 1-.08-.14V3.59a.16.16 0 0 1 .08-.14L4.8 2.08a.17.17 0 0 0 .06-.23L4.15.67a.17.17 0 0 0-.23-.06L1.86 1.76l-1.27.71a.15.15 0 0 0-.09.14v12.78Z" fill="#949494" style="color: rgb(255, 255, 255); fill: rgb(148, 148, 148); fill-opacity: 1; fill-rule: nonzero; stroke: none; stroke-opacity: 1; stroke-width: 1px; stroke-linecap: butt; stroke-linejoin: miter; stroke-miterlimit: 4; stroke-dasharray: none; stroke-dashoffset: 0px; opacity: 1; clip-rule: nonzero; vector-effect: none"/><path d="M2.25 3.51a.13.13 0 0 1 .07-.06l2.45-1.37a.17.17 0 0 0 .06-.23L4.13.67a.19.19 0 0 0-.24-.06l-2 1.15-1.33.71a.17.17 0 0 0-.06.06l1 .53Zm2.52 12.41-2.45-1.37a.2.2 0 0 1-.08-.08l-1.73 1h.05l1.24.69 2.09 1.17a.19.19 0 0 0 .24-.06l.7-1.18a.17.17 0 0 0-.06-.17Z" fill="#a3a3a3" style="color: rgb(255, 255, 255); fill: rgb(163, 163, 163); fill-opacity: 1; fill-rule: nonzero; stroke: none; stroke-opacity: 1; stroke-width: 1px; stroke-linecap: butt; stroke-linejoin: miter; stroke-miterlimit: 4; stroke-dasharray: none; stroke-dashoffset: 0px; opacity: 1; clip-rule: nonzero; vector-effect: none"/><path d="M17.5 15.39a.15.15 0 0 1-.09.14l-1.23.69-2.1 1.17a.17.17 0 0 1-.23-.06l-.71-1.18a.17.17 0 0 1 .06-.23l2.46-1.37a.16.16 0 0 0 .08-.14V3.59a.16.16 0 0 0-.08-.14L13.2 2.08a.17.17 0 0 1-.06-.23l.71-1.18a.17.17 0 0 1 .23-.06l2.06 1.15 1.27.71a.15.15 0 0 1 .09.14v12.78Z" fill="#949494" style="color: rgb(255, 255, 255); fill: rgb(148, 148, 148); fill-opacity: 1; fill-rule: nonzero; stroke: none; stroke-opacity: 1; stroke-width: 1px; stroke-linecap: butt; stroke-linejoin: miter; stroke-miterlimit: 4; stroke-dasharray: none; stroke-dashoffset: 0px; opacity: 1; clip-rule: nonzero; vector-effect: none"/><path d="M15.75 3.51a.13.13 0 0 0-.07-.06l-2.45-1.37a.17.17 0 0 1-.06-.23l.7-1.18a.19.19 0 0 1 .24-.06l2.05 1.15 1.28.71a.17.17 0 0 1 .06.06l-1 .53Zm-2.52 12.41 2.45-1.37a.2.2 0 0 0 .08-.08l1.73 1-1.24.69-2.09 1.17a.19.19 0 0 1-.24-.06l-.7-1.18a.17.17 0 0 1 .01-.17Z" fill="#a3a3a3" style="color: rgb(255, 255, 255); fill: rgb(163, 163, 163); fill-opacity: 1; fill-rule: nonzero; stroke: none; stroke-opacity: 1; stroke-width: 1px; stroke-linecap: butt; stroke-linejoin: miter; stroke-miterlimit: 4; stroke-dasharray: none; stroke-dashoffset: 0px; opacity: 1; clip-rule: nonzero; vector-effect: none"/></g></g></svg>