<svg xmlns="http://www.w3.org/2000/svg" xmlns:xlink="http://www.w3.org/1999/xlink" style="color: rgb(255, 255, 255); fill: rgb(50, 49, 48); color: rgb(255, 255, 255); fill: rgb(50, 49, 48); fill-opacity: 1; fill-rule: nonzero; stroke: none; stroke-opacity: 1; stroke-width: 1px; stroke-linecap: butt; stroke-linejoin: miter; stroke-miterlimit: 4; stroke-dasharray: none; stroke-dashoffset: 0px; opacity: 1; clip-rule: nonzero; vector-effect: none" viewBox="0 0 16 16" width="16" height="16"><defs style="color: rgb(255, 255, 255); fill: rgb(50, 49, 48); fill-opacity: 1; fill-rule: nonzero; stroke: none; stroke-opacity: 1; stroke-width: 1px; stroke-linecap: butt; stroke-linejoin: miter; stroke-miterlimit: 4; stroke-dasharray: none; stroke-dashoffset: 0px; opacity: 1; clip-rule: nonzero; vector-effect: none"/><g><g style="color: rgb(255, 255, 255); fill: rgb(50, 49, 48); fill-opacity: 1; fill-rule: nonzero; stroke: none; stroke-opacity: 1; stroke-width: 1px; stroke-linecap: butt; stroke-linejoin: miter; stroke-miterlimit: 4; stroke-dasharray: none; stroke-dashoffset: 0px; opacity: 1; clip-rule: nonzero; vector-effect: none"><title style="color: rgb(255, 255, 255); fill: rgb(50, 49, 48); fill-opacity: 1; fill-rule: nonzero; stroke: none; stroke-opacity: 1; stroke-width: 1px; stroke-linecap: butt; stroke-linejoin: miter; stroke-miterlimit: 4; stroke-dasharray: none; stroke-dashoffset: 0px; opacity: 1; clip-rule: nonzero; vector-effect: none"/><path d="M16 2.62a2.7 2.7 0 0 1-.2 1 2.6 2.6 0 0 1-.57.86L5 14.77 0 16l1.23-4.95L11.52.77a2.6 2.6 0 0 1 .86-.57 2.7 2.7 0 0 1 1-.2 2.5 2.5 0 0 1 1 .21 2.5 2.5 0 0 1 .83.56 2.6 2.6 0 0 1 .56.83A2.5 2.5 0 0 1 16 2.62m-14.62 12L4 14a3 3 0 0 0-.26-.68 3 3 0 0 0-.42-.57 3 3 0 0 0-.57-.42 3 3 0 0 0-.75-.28zm1.17-3.47a3.57 3.57 0 0 1 2.29 2.29L13.29 5 11 2.71zM14 4.29l.38-.37a4 4 0 0 0 .32-.36 2 2 0 0 0 .22-.42 1.6 1.6 0 0 0 .08-.51 1.45 1.45 0 0 0-.13-.63 1.5 1.5 0 0 0-.35-.52 1.5 1.5 0 0 0-.52-.35 1.44 1.44 0 0 0-.62-.13 1.6 1.6 0 0 0-.52.08 2 2 0 0 0-.42.22 2.2 2.2 0 0 0-.36.33l-.37.37z" style="color: rgb(255, 255, 255); fill: rgb(50, 49, 48); fill-opacity: 1; fill-rule: nonzero; stroke: none; stroke-opacity: 1; stroke-width: 1px; stroke-linecap: butt; stroke-linejoin: miter; stroke-miterlimit: 4; stroke-dasharray: none; stroke-dashoffset: 0px; opacity: 1; clip-rule: nonzero; vector-effect: none"/></g></g></svg>