<svg height="16" width="16" aria-hidden="true" role="presentation" focusable="false" xmlns="http://www.w3.org/2000/svg" xmlns:xlink="http://www.w3.org/1999/xlink" style="color: rgb(36, 36, 36); fill: rgb(50, 49, 48); color: rgb(36, 36, 36); fill: rgb(50, 49, 48); fill-opacity: 1; fill-rule: nonzero; stroke: none; stroke-opacity: 1; stroke-width: 1px; stroke-linecap: butt; stroke-linejoin: miter; stroke-miterlimit: 4; stroke-dasharray: none; stroke-dashoffset: 0px; opacity: 1; clip-rule: nonzero; vector-effect: none" viewBox="0 0 16 16"><g style="color: rgb(36, 36, 36); fill: rgb(50, 49, 48); fill-opacity: 1; fill-rule: nonzero; stroke: none; stroke-opacity: 1; stroke-width: 1px; stroke-linecap: butt; stroke-linejoin: miter; stroke-miterlimit: 4; stroke-dasharray: none; stroke-dashoffset: 0px; opacity: 1; clip-rule: nonzero; vector-effect: none; color: rgb(36, 36, 36); fill: rgb(50, 49, 48)"><g style="color: rgb(255, 255, 255); fill: rgb(50, 49, 48); fill-opacity: 1; fill-rule: nonzero; stroke: none; stroke-opacity: 1; stroke-width: 1px; stroke-linecap: butt; stroke-linejoin: miter; stroke-miterlimit: 4; stroke-dasharray: none; stroke-dashoffset: 0px; opacity: 1; clip-rule: nonzero; vector-effect: none"><title style="color: rgb(255, 255, 255); fill: rgb(50, 49, 48); fill-opacity: 1; fill-rule: nonzero; stroke: none; stroke-opacity: 1; stroke-width: 1px; stroke-linecap: butt; stroke-linejoin: miter; stroke-miterlimit: 4; stroke-dasharray: none; stroke-dashoffset: 0px; opacity: 1; clip-rule: nonzero; vector-effect: none"/><path d="M2 7a1 1 0 0 1 .39.08.94.94 0 0 1 .53.53 1 1 0 0 1 0 .78.94.94 0 0 1-.53.53 1 1 0 0 1-.78 0 .94.94 0 0 1-.53-.53 1 1 0 0 1 0-.78.94.94 0 0 1 .53-.53A1 1 0 0 1 2 7m6 0a1 1 0 0 1 .39.08.94.94 0 0 1 .53.53 1 1 0 0 1 0 .78.94.94 0 0 1-.53.53 1 1 0 0 1-.78 0 .94.94 0 0 1-.53-.53 1 1 0 0 1 0-.78.94.94 0 0 1 .53-.53A1 1 0 0 1 8 7m6 0a1 1 0 0 1 .39.08.94.94 0 0 1 .53.53 1 1 0 0 1 0 .78.94.94 0 0 1-.53.53 1 1 0 0 1-.78 0 .94.94 0 0 1-.53-.53 1 1 0 0 1 0-.78.94.94 0 0 1 .53-.53A1 1 0 0 1 14 7" style="color: rgb(255, 255, 255); fill: rgb(50, 49, 48); fill-opacity: 1; fill-rule: nonzero; stroke: none; stroke-opacity: 1; stroke-width: 1px; stroke-linecap: butt; stroke-linejoin: miter; stroke-miterlimit: 4; stroke-dasharray: none; stroke-dashoffset: 0px; opacity: 1; clip-rule: nonzero; vector-effect: none"/></g></g></svg>