<svg viewBox="0 0 16 16" role="presentation" focusable="false" xmlns:svg="http://www.w3.org/2000/svg" xmlns:xlink="http://www.w3.org/1999/xlink" aria-hidden="true" xmlns="http://www.w3.org/2000/svg" style="color: rgb(41, 40, 39); fill: rgb(15, 15, 15); color: rgb(41, 40, 39); fill: rgb(15, 15, 15); fill-opacity: 1; fill-rule: nonzero; stroke: none; stroke-opacity: 1; stroke-width: 1px; stroke-linecap: butt; stroke-linejoin: miter; stroke-miterlimit: 4; stroke-dasharray: none; stroke-dashoffset: 0px; opacity: 1; clip-rule: nonzero; vector-effect: none" width="16" height="16"><g style="color: rgb(41, 40, 39); fill: rgb(15, 15, 15); fill-opacity: 1; fill-rule: nonzero; stroke: none; stroke-opacity: 1; stroke-width: 1px; stroke-linecap: butt; stroke-linejoin: miter; stroke-miterlimit: 4; stroke-dasharray: none; stroke-dashoffset: 0px; opacity: 1; clip-rule: nonzero; vector-effect: none"><path d="M15.36 14H.64a.64.64 0 0 1-.64-.64V3.64A.64.64 0 0 1 .64 3h14.72a.64.64 0 0 1 .64.64v9.72a.64.64 0 0 1-.64.64z" class="msportalfx-svg-c05" style="color: rgb(41, 40, 39); fill: rgb(62, 62, 62); fill-opacity: 1; fill-rule: nonzero; stroke: none; stroke-opacity: 1; stroke-width: 1px; stroke-linecap: butt; stroke-linejoin: miter; stroke-miterlimit: 4; stroke-dasharray: none; stroke-dashoffset: 0px; opacity: 1; clip-rule: nonzero; vector-effect: none"/><path fill="#2072B8" d="M2 4h12v9H2z" style="color: rgb(41, 40, 39); fill: rgb(32, 114, 184); fill-opacity: 1; fill-rule: nonzero; stroke: none; stroke-opacity: 1; stroke-width: 1px; stroke-linecap: butt; stroke-linejoin: miter; stroke-miterlimit: 4; stroke-dasharray: none; stroke-dashoffset: 0px; opacity: 1; clip-rule: nonzero; vector-effect: none"/><path opacity=".4" d="M13 5v7H3V5h10m1-1H2v9h12V4z" class="msportalfx-svg-c01" style="color: rgb(41, 40, 39); fill: rgb(255, 255, 255); fill-opacity: 1; fill-rule: nonzero; stroke: none; stroke-opacity: 1; stroke-width: 1px; stroke-linecap: butt; stroke-linejoin: miter; stroke-miterlimit: 4; stroke-dasharray: none; stroke-dashoffset: 0px; opacity: 0.4; clip-rule: nonzero; vector-effect: none"/><path opacity=".2" d="M4.667 14H.64a.64.64 0 0 1-.64-.64V3.64A.64.64 0 0 1 .64 3h10.693L4.667 14z" class="msportalfx-svg-c01" style="color: rgb(41, 40, 39); fill: rgb(255, 255, 255); fill-opacity: 1; fill-rule: nonzero; stroke: none; stroke-opacity: 1; stroke-width: 1px; stroke-linecap: butt; stroke-linejoin: miter; stroke-miterlimit: 4; stroke-dasharray: none; stroke-dashoffset: 0px; opacity: 0.2; clip-rule: nonzero; vector-effect: none"/></g></svg>