<svg height="16" width="16" aria-hidden="true" role="presentation" focusable="false" xmlns="http://www.w3.org/2000/svg" xmlns:xlink="http://www.w3.org/1999/xlink" style="color: rgb(0, 120, 212); fill: rgb(255, 255, 255); color: rgb(0, 120, 212); fill: rgb(255, 255, 255); fill-opacity: 1; fill-rule: nonzero; stroke: none; stroke-opacity: 1; stroke-width: 1px; stroke-linecap: butt; stroke-linejoin: miter; stroke-miterlimit: 4; stroke-dasharray: none; stroke-dashoffset: 0px; opacity: 1; clip-rule: nonzero; vector-effect: none" viewBox="0 0 16 16"><g style="color: rgb(0, 120, 212); fill: rgb(255, 255, 255); fill-opacity: 1; fill-rule: nonzero; stroke: none; stroke-opacity: 1; stroke-width: 1px; stroke-linecap: butt; stroke-linejoin: miter; stroke-miterlimit: 4; stroke-dasharray: none; stroke-dashoffset: 0px; opacity: 1; clip-rule: nonzero; vector-effect: none; color: rgb(0, 120, 212); fill: rgb(255, 255, 255)"><g style="color: rgb(255, 255, 255); fill: rgb(50, 49, 48); fill-opacity: 1; fill-rule: nonzero; stroke: none; stroke-opacity: 1; stroke-width: 1px; stroke-linecap: butt; stroke-linejoin: miter; stroke-miterlimit: 4; stroke-dasharray: none; stroke-dashoffset: 0px; opacity: 1; clip-rule: nonzero; vector-effect: none"><title style="color: rgb(255, 255, 255); fill: rgb(50, 49, 48); fill-opacity: 1; fill-rule: nonzero; stroke: none; stroke-opacity: 1; stroke-width: 1px; stroke-linecap: butt; stroke-linejoin: miter; stroke-miterlimit: 4; stroke-dasharray: none; stroke-dashoffset: 0px; opacity: 1; clip-rule: nonzero; vector-effect: none"/><path d="M14 12v1h-4a2.4 2.4 0 0 1-.2.8l-.4.6-.6.4-.8.2-.8-.2-.6-.4-.4-.6A2.4 2.4 0 0 1 6 13H2v-1h1V6a6 6 0 0 1 .2-1.3 6 6 0 0 1 .5-1.2 3.9 3.9 0 0 1 .8-1 3.9 3.9 0 0 1 1-.8l1.2-.5L8 1l1.3.2 1.2.5a3.9 3.9 0 0 1 1 .8 3.9 3.9 0 0 1 .8 1 6 6 0 0 1 .5 1.2A6 6 0 0 1 13 6v6zm-2 0V6a4.5 4.5 0 0 0-.3-1.6 2.7 2.7 0 0 0-.9-1.2 2.7 2.7 0 0 0-1.2-.9 4.4 4.4 0 0 0-3.2 0 2.7 2.7 0 0 0-1.2.9 2.7 2.7 0 0 0-.9 1.2A4.5 4.5 0 0 0 4 6v6zm-4 2h.4l.3-.2.2-.3A.7.7 0 0 0 9 13H7a.6.6 0 0 0 .1.4l.2.3.3.2z" style="color: rgb(255, 255, 255); fill: rgb(50, 49, 48); fill-opacity: 1; fill-rule: nonzero; stroke: none; stroke-opacity: 1; stroke-width: 1px; stroke-linecap: butt; stroke-linejoin: miter; stroke-miterlimit: 4; stroke-dasharray: none; stroke-dashoffset: 0px; opacity: 1; clip-rule: nonzero; vector-effect: none"/></g></g></svg>