<svg height="50" width="50" aria-hidden="true" role="presentation" focusable="false" xmlns="http://www.w3.org/2000/svg" xmlns:xlink="http://www.w3.org/1999/xlink" style="color: rgb(41, 40, 39); fill: rgb(15, 15, 15); color: rgb(41, 40, 39); fill: rgb(15, 15, 15); fill-opacity: 1; fill-rule: nonzero; stroke: none; stroke-opacity: 1; stroke-width: 1px; stroke-linecap: butt; stroke-linejoin: miter; stroke-miterlimit: 4; stroke-dasharray: none; stroke-dashoffset: 0px; opacity: 1; clip-rule: nonzero; vector-effect: none" viewBox="0 0 50 50"><g style="color: rgb(41, 40, 39); fill: rgb(15, 15, 15); fill-opacity: 1; fill-rule: nonzero; stroke: none; stroke-opacity: 1; stroke-width: 1px; stroke-linecap: butt; stroke-linejoin: miter; stroke-miterlimit: 4; stroke-dasharray: none; stroke-dashoffset: 0px; opacity: 1; clip-rule: nonzero; vector-effect: none; color: rgb(41, 40, 39); fill: rgb(15, 15, 15)"><g style="color: rgb(255, 255, 255); fill: rgb(50, 49, 48); fill-opacity: 1; fill-rule: nonzero; stroke: none; stroke-opacity: 1; stroke-width: 1px; stroke-linecap: butt; stroke-linejoin: miter; stroke-miterlimit: 4; stroke-dasharray: none; stroke-dashoffset: 0px; opacity: 1; clip-rule: nonzero; vector-effect: none"><title style="color: rgb(255, 255, 255); fill: rgb(50, 49, 48); fill-opacity: 1; fill-rule: nonzero; stroke: none; stroke-opacity: 1; stroke-width: 1px; stroke-linecap: butt; stroke-linejoin: miter; stroke-miterlimit: 4; stroke-dasharray: none; stroke-dashoffset: 0px; opacity: 1; clip-rule: nonzero; vector-effect: none"/><path d="M43.75 3.125H9.375v43.75h31.25v-37.5h3.125z" class="msportalfx-svg-c01" style="color: rgb(255, 255, 255); fill: rgb(255, 255, 255); fill-opacity: 1; fill-rule: nonzero; stroke: none; stroke-opacity: 1; stroke-width: 1px; stroke-linecap: butt; stroke-linejoin: miter; stroke-miterlimit: 4; stroke-dasharray: none; stroke-dashoffset: 0px; opacity: 1; clip-rule: nonzero; vector-effect: none"/><path fill="#5AB2D7" d="M34.375 12.5V9.375H12.5V12.5h21.875zm0 6.25v-3.125H12.5v3.125h21.875zm0 6.25v-3.125H12.5V25h21.875zm0 6.25v-3.125H12.5v3.125h21.875z" style="color: rgb(255, 255, 255); fill: rgb(90, 178, 215); fill-opacity: 1; fill-rule: nonzero; stroke: none; stroke-opacity: 1; stroke-width: 1px; stroke-linecap: butt; stroke-linejoin: miter; stroke-miterlimit: 4; stroke-dasharray: none; stroke-dashoffset: 0px; opacity: 1; clip-rule: nonzero; vector-effect: none"/><path fill="#5AB2D7" d="M43.75 0H15.626C9.376 0 6.25 3.125 6.25 9.375L6.251 37.5H6.25a6.25 6.25 0 1 0 0 12.5H37.5c3.393 0 6.25-2.857 6.25-6.25V9.375h5.383A6.185 6.185 0 0 0 50 6.25 6.25 6.25 0 0 0 43.75 0zm0 3.126c-.006.003-3.124 1.549-3.124 6.249V37.5h-.001v4.688a4.688 4.688 0 0 1-9.376 0c0-2.038 1.309-4.042 3.125-4.688H9.376L9.375 9.375c0-3.889 2.396-6.25 6.251-6.25l28.124.001z" style="color: rgb(255, 255, 255); fill: rgb(90, 178, 215); fill-opacity: 1; fill-rule: nonzero; stroke: none; stroke-opacity: 1; stroke-width: 1px; stroke-linecap: butt; stroke-linejoin: miter; stroke-miterlimit: 4; stroke-dasharray: none; stroke-dashoffset: 0px; opacity: 1; clip-rule: nonzero; vector-effect: none"/></g></g></svg>