<svg height="16" width="16" aria-hidden="true" role="presentation" focusable="false" xmlns="http://www.w3.org/2000/svg" xmlns:xlink="http://www.w3.org/1999/xlink" style="color: rgb(41, 40, 39); fill: rgb(0, 120, 212); color: rgb(41, 40, 39); fill: rgb(0, 120, 212); fill-opacity: 1; fill-rule: nonzero; stroke: none; stroke-opacity: 1; stroke-width: 1px; stroke-linecap: butt; stroke-linejoin: miter; stroke-miterlimit: 4; stroke-dasharray: none; stroke-dashoffset: 0px; opacity: 1; clip-rule: nonzero; vector-effect: none" viewBox="0 0 16 16"><g style="color: rgb(41, 40, 39); fill: rgb(0, 120, 212); fill-opacity: 1; fill-rule: nonzero; stroke: none; stroke-opacity: 1; stroke-width: 1px; stroke-linecap: butt; stroke-linejoin: miter; stroke-miterlimit: 4; stroke-dasharray: none; stroke-dashoffset: 0px; opacity: 1; clip-rule: nonzero; vector-effect: none; color: rgb(41, 40, 39); fill: rgb(0, 120, 212)"><g style="color: rgb(255, 255, 255); fill: rgb(50, 49, 48); fill-opacity: 1; fill-rule: nonzero; stroke: none; stroke-opacity: 1; stroke-width: 1px; stroke-linecap: butt; stroke-linejoin: miter; stroke-miterlimit: 4; stroke-dasharray: none; stroke-dashoffset: 0px; opacity: 1; clip-rule: nonzero; vector-effect: none"><title style="color: rgb(255, 255, 255); fill: rgb(50, 49, 48); fill-opacity: 1; fill-rule: nonzero; stroke: none; stroke-opacity: 1; stroke-width: 1px; stroke-linecap: butt; stroke-linejoin: miter; stroke-miterlimit: 4; stroke-dasharray: none; stroke-dashoffset: 0px; opacity: 1; clip-rule: nonzero; vector-effect: none"/><path d="m10.5 0 1.5.2a3.8 3.8 0 0 1 1.3.6l1.1.8.9 1.1a7 7 0 0 1 .5 1.3 7.7 7.7 0 0 1 .2 1.5 7.7 7.7 0 0 1-.2 1.5 7 7 0 0 1-.5 1.3l-.9 1.1-1.1.9-1.3.5-1.5.2a5.8 5.8 0 0 1-1.9-.3 5.4 5.4 0 0 1-1.6-1L.9 15.9H.1a.8.8 0 0 1 0-.8L6.3 9a5.4 5.4 0 0 1-1-1.6A5.8 5.8 0 0 1 5 5.5 7.7 7.7 0 0 1 5.2 4a3.8 3.8 0 0 1 .6-1.3 4.4 4.4 0 0 1 .8-1.1L7.7.8A3.8 3.8 0 0 1 9 .2zm0 10a3.9 3.9 0 0 0 1.8-.4 4.2 4.2 0 0 0 1.4-.9 4.2 4.2 0 0 0 .9-1.4 3.9 3.9 0 0 0 .4-1.8 3.3 3.3 0 0 0-.4-1.7 3.8 3.8 0 0 0-.9-1.5 4.2 4.2 0 0 0-1.4-.9 3.9 3.9 0 0 0-1.8-.4 3.3 3.3 0 0 0-1.7.4 3.8 3.8 0 0 0-1.5.9 3.8 3.8 0 0 0-.9 1.5A3.3 3.3 0 0 0 6 5.5a3.9 3.9 0 0 0 .4 1.8 4.2 4.2 0 0 0 .9 1.4 3.8 3.8 0 0 0 1.5.9 3.3 3.3 0 0 0 1.7.4" style="color: rgb(255, 255, 255); fill: rgb(50, 49, 48); fill-opacity: 1; fill-rule: nonzero; stroke: none; stroke-opacity: 1; stroke-width: 1px; stroke-linecap: butt; stroke-linejoin: miter; stroke-miterlimit: 4; stroke-dasharray: none; stroke-dashoffset: 0px; opacity: 1; clip-rule: nonzero; vector-effect: none"/></g></g></svg>