<svg height="50" width="50" aria-hidden="true" role="presentation" focusable="false" xmlns="http://www.w3.org/2000/svg" xmlns:xlink="http://www.w3.org/1999/xlink" style="color: rgb(41, 40, 39); fill: rgb(15, 15, 15); color: rgb(41, 40, 39); fill: rgb(15, 15, 15); fill-opacity: 1; fill-rule: nonzero; stroke: none; stroke-opacity: 1; stroke-width: 1px; stroke-linecap: butt; stroke-linejoin: miter; stroke-miterlimit: 4; stroke-dasharray: none; stroke-dashoffset: 0px; opacity: 1; clip-rule: nonzero; vector-effect: none" viewBox="0 0 50 50"><g style="color: rgb(41, 40, 39); fill: rgb(15, 15, 15); fill-opacity: 1; fill-rule: nonzero; stroke: none; stroke-opacity: 1; stroke-width: 1px; stroke-linecap: butt; stroke-linejoin: miter; stroke-miterlimit: 4; stroke-dasharray: none; stroke-dashoffset: 0px; opacity: 1; clip-rule: nonzero; vector-effect: none; color: rgb(41, 40, 39); fill: rgb(15, 15, 15)"><g style="color: rgb(255, 255, 255); fill: rgb(50, 49, 48); fill-opacity: 1; fill-rule: nonzero; stroke: none; stroke-opacity: 1; stroke-width: 1px; stroke-linecap: butt; stroke-linejoin: miter; stroke-miterlimit: 4; stroke-dasharray: none; stroke-dashoffset: 0px; opacity: 1; clip-rule: nonzero; vector-effect: none"><title style="color: rgb(255, 255, 255); fill: rgb(50, 49, 48); fill-opacity: 1; fill-rule: nonzero; stroke: none; stroke-opacity: 1; stroke-width: 1px; stroke-linecap: butt; stroke-linejoin: miter; stroke-miterlimit: 4; stroke-dasharray: none; stroke-dashoffset: 0px; opacity: 1; clip-rule: nonzero; vector-effect: none"/><path d="M38.185 5.96C27.169 4.745 25.326 0 25.326 0S22.847 6.242 7 6.242v25.611c0 3.097 1.721 5.997 4.104 8.532 5.402 5.748 14.223 9.616 14.223 9.616s18.327-8.029 18.327-18.149V6.242c-2.038 0-3.851-.103-5.469-.282z" class="msportalfx-svg-c14" style="color: rgb(255, 255, 255); fill: rgb(87, 163, 0); fill-opacity: 1; fill-rule: nonzero; stroke: none; stroke-opacity: 1; stroke-width: 1px; stroke-linecap: butt; stroke-linejoin: miter; stroke-miterlimit: 4; stroke-dasharray: none; stroke-dashoffset: 0px; opacity: 1; clip-rule: nonzero; vector-effect: none"/><path opacity=".4" d="M29.86 16.543 38.185 5.96C27.169 4.745 25.326 0 25.326 0S22.847 6.242 7 6.242v25.611c0 3.097 1.721 5.997 4.104 8.532l6.154-7.822 12.602-16.02z" class="msportalfx-svg-c13" style="color: rgb(255, 255, 255); fill: rgb(184, 212, 50); fill-opacity: 1; fill-rule: nonzero; stroke: none; stroke-opacity: 1; stroke-width: 1px; stroke-linecap: butt; stroke-linejoin: miter; stroke-miterlimit: 4; stroke-dasharray: none; stroke-dashoffset: 0px; opacity: 0.4; clip-rule: nonzero; vector-effect: none"/><path d="M32.595 24.46h-1.066v-3.552a6.697 6.697 0 0 0-1.669-4.45c-.039-.043-.074-.09-.112-.133-1.107-1.186-2.683-1.948-4.422-1.947-1.736-.001-3.312.761-4.419 1.947a6.697 6.697 0 0 0-1.783 4.582v3.553h-1.065a.8.8 0 0 0-.801.801v9.392c0 .442.359.801.801.801h14.536a.801.801 0 0 0 .801-.801v-9.391a.801.801 0 0 0-.801-.802zm-4.011.001h-5.02l.001-.001H22.07v-3.552c0-1.022.386-1.927.988-2.57.605-.643 1.395-1.013 2.268-1.013.874 0 1.665.37 2.27 1.013.143.153.271.323.389.504l-.001.001c.373.579.6 1.288.6 2.064v3.554z" class="msportalfx-svg-c01" style="color: rgb(255, 255, 255); fill: rgb(255, 255, 255); fill-opacity: 1; fill-rule: nonzero; stroke: none; stroke-opacity: 1; stroke-width: 1px; stroke-linecap: butt; stroke-linejoin: miter; stroke-miterlimit: 4; stroke-dasharray: none; stroke-dashoffset: 0px; opacity: 1; clip-rule: nonzero; vector-effect: none"/></g></g></svg>