<svg xmlns="http://www.w3.org/2000/svg" xmlns:xlink="http://www.w3.org/1999/xlink" style="color: rgb(255, 255, 255); fill: rgb(50, 49, 48); color: rgb(255, 255, 255); fill: rgb(50, 49, 48); fill-opacity: 1; fill-rule: nonzero; stroke: none; stroke-opacity: 1; stroke-width: 1px; stroke-linecap: butt; stroke-linejoin: miter; stroke-miterlimit: 4; stroke-dasharray: none; stroke-dashoffset: 0px; opacity: 1; clip-rule: nonzero; vector-effect: none" viewBox="0 0 18 18" width="18" height="18"><defs style="color: rgb(255, 255, 255); fill: rgb(50, 49, 48); fill-opacity: 1; fill-rule: nonzero; stroke: none; stroke-opacity: 1; stroke-width: 1px; stroke-linecap: butt; stroke-linejoin: miter; stroke-miterlimit: 4; stroke-dasharray: none; stroke-dashoffset: 0px; opacity: 1; clip-rule: nonzero; vector-effect: none"><linearGradient id="b49cc61d-635f-45d1-a4e0-a2f918699021" x1="7.04" x2="7.04" y1=".75" y2="16.35" gradientUnits="userSpaceOnUse"><stop offset=".18" stop-color="#5ea0ef"/><stop offset="1" stop-color="#0078d4"/></linearGradient></defs><g><defs style="color: rgb(255, 255, 255); fill: rgb(50, 49, 48); fill-opacity: 1; fill-rule: nonzero; stroke: none; stroke-opacity: 1; stroke-width: 1px; stroke-linecap: butt; stroke-linejoin: miter; stroke-miterlimit: 4; stroke-dasharray: none; stroke-dashoffset: 0px; opacity: 1; clip-rule: nonzero; vector-effect: none"/><path fill="#5ea0ef" d="M14 8c0 4.58-5.53 8.26-6.73 9a.47.47 0 0 1-.46 0C5.6 16.25.07 12.57.07 8V2.48a.44.44 0 0 1 .43-.43C4.8 1.93 3.8 0 7 0s2.23 1.9 6.54 2a.44.44 0 0 1 .42.43z" style="color: rgb(255, 255, 255); fill: rgb(94, 160, 239); fill-opacity: 1; fill-rule: nonzero; stroke: none; stroke-opacity: 1; stroke-width: 1px; stroke-linecap: butt; stroke-linejoin: miter; stroke-miterlimit: 4; stroke-dasharray: none; stroke-dashoffset: 0px; opacity: 1; clip-rule: nonzero; vector-effect: none"/><path fill="#60b0ef" d="M13.42 8c0 4.2-5.08 7.57-6.18 8.26a.4.4 0 0 1-.42 0C5.72 15.6.65 12.23.65 8V3A.39.39 0 0 1 1 2.59C5 2.48 4.07.75 7 .75s2.05 1.73 6 1.84a.4.4 0 0 1 .4.4z" style="color: rgb(255, 255, 255); fill: rgb(96, 176, 239); fill-opacity: 1; fill-rule: nonzero; stroke: none; stroke-opacity: 1; stroke-width: 1px; stroke-linecap: butt; stroke-linejoin: miter; stroke-miterlimit: 4; stroke-dasharray: none; stroke-dashoffset: 0px; opacity: 1; clip-rule: nonzero; vector-effect: none"/><path fill="url(#b49cc61d-635f-45d1-a4e0-a2f918699021)" d="M7 8.55V.75c3 0 2.05 1.73 6 1.84a.41.41 0 0 1 .4.4V8.5zm0 0H.67c.4 4 5.1 7.1 6.15 7.75a.34.34 0 0 0 .17.05H7z" style="color: rgb(255, 255, 255); fill: url(&quot;#b49cc61d-635f-45d1-a4e0-a2f918699021&quot;); fill-opacity: 1; fill-rule: nonzero; stroke: none; stroke-opacity: 1; stroke-width: 1px; stroke-linecap: butt; stroke-linejoin: miter; stroke-miterlimit: 4; stroke-dasharray: none; stroke-dashoffset: 0px; opacity: 1; clip-rule: nonzero; vector-effect: none"/><path fill="#0078d4" d="M1 2.6C5 2.48 4.07.75 7 .75v7.8H.67V3A.4.4 0 0 1 1 2.59zm12.4 5.95H7v7.8a.34.34 0 0 0 .17-.05c1.13-.66 5.83-3.8 6.22-7.75z" style="color: rgb(255, 255, 255); fill: rgb(0, 120, 212); fill-opacity: 1; fill-rule: nonzero; stroke: none; stroke-opacity: 1; stroke-width: 1px; stroke-linecap: butt; stroke-linejoin: miter; stroke-miterlimit: 4; stroke-dasharray: none; stroke-dashoffset: 0px; opacity: 1; clip-rule: nonzero; vector-effect: none"/><path fill="#949494" d="m14.13 17.8.33-1.08.63-.37 1.1.48.7-.72V16l-.5-1 .3-.68 1.1-.4.12-.05v-1h-.14l-1.08-.33-.36-.63.47-1.1-.72-.7H16l-1 .5-.7-.3-.44-1.22h-1l-.05.14-.33 1.08-.7.3-1.18-.54-.7.72.07.13.52 1-.28.7-1.2.45v1l.14.05 1.08.33.3.7L10 16.3l.73.7.13-.07 1-.53.7.28.52 1.3h1zm-1.63-3.23a1.45 1.45 0 1 1 2 0 1.44 1.44 0 0 1-2 0" style="color: rgb(255, 255, 255); fill: rgb(148, 148, 148); fill-opacity: 1; fill-rule: nonzero; stroke: none; stroke-opacity: 1; stroke-width: 1px; stroke-linecap: butt; stroke-linejoin: miter; stroke-miterlimit: 4; stroke-dasharray: none; stroke-dashoffset: 0px; opacity: 1; clip-rule: nonzero; vector-effect: none"/></g></svg>