<svg xmlns="http://www.w3.org/2000/svg" xmlns:xlink="http://www.w3.org/1999/xlink" style="color: rgb(255, 255, 255); fill: rgb(50, 49, 48); color: rgb(255, 255, 255); fill: rgb(50, 49, 48); fill-opacity: 1; fill-rule: nonzero; stroke: none; stroke-opacity: 1; stroke-width: 1px; stroke-linecap: butt; stroke-linejoin: miter; stroke-miterlimit: 4; stroke-dasharray: none; stroke-dashoffset: 0px; opacity: 1; clip-rule: nonzero; vector-effect: none" viewBox="0 0 18 18" width="18" height="18"><defs style="color: rgb(255, 255, 255); fill: rgb(50, 49, 48); fill-opacity: 1; fill-rule: nonzero; stroke: none; stroke-opacity: 1; stroke-width: 1px; stroke-linecap: butt; stroke-linejoin: miter; stroke-miterlimit: 4; stroke-dasharray: none; stroke-dashoffset: 0px; opacity: 1; clip-rule: nonzero; vector-effect: none"><linearGradient id="b49cc61d-635f-45d1-a4e0-a2f91869904e" x1="7.434" x2="9.215" y1="1.303" y2="23.449" gradientUnits="userSpaceOnUse"><stop offset=".225" stop-color="#32d4f5"/><stop offset=".389" stop-color="#30cff1"/><stop offset=".584" stop-color="#2bc0e4"/><stop offset=".795" stop-color="#23a9ce"/><stop offset="1" stop-color="#198ab3"/></linearGradient></defs><g><g style="color: rgb(255, 255, 255); fill: rgb(50, 49, 48); fill-opacity: 1; fill-rule: nonzero; stroke: none; stroke-opacity: 1; stroke-width: 1px; stroke-linecap: butt; stroke-linejoin: miter; stroke-miterlimit: 4; stroke-dasharray: none; stroke-dashoffset: 0px; opacity: 1; clip-rule: nonzero; vector-effect: none"><title style="color: rgb(255, 255, 255); fill: rgb(50, 49, 48); fill-opacity: 1; fill-rule: nonzero; stroke: none; stroke-opacity: 1; stroke-width: 1px; stroke-linecap: butt; stroke-linejoin: miter; stroke-miterlimit: 4; stroke-dasharray: none; stroke-dashoffset: 0px; opacity: 1; clip-rule: nonzero; vector-effect: none"/><defs style="color: rgb(255, 255, 255); fill: rgb(50, 49, 48); fill-opacity: 1; fill-rule: nonzero; stroke: none; stroke-opacity: 1; stroke-width: 1px; stroke-linecap: butt; stroke-linejoin: miter; stroke-miterlimit: 4; stroke-dasharray: none; stroke-dashoffset: 0px; opacity: 1; clip-rule: nonzero; vector-effect: none"/><path fill="url(#b49cc61d-635f-45d1-a4e0-a2f91869904e)" d="M15.945 16.554c-.417-3.333-2.051-6.156-5.062-7.071a4.079 4.079 0 1 0-4.462-.035c-3.034.814-4.653 3.37-5.023 7.116a1.3 1.3 0 0 0 1.161 1.429A1 1 0 0 0 2.69 18h11.965a1.294 1.294 0 0 0 1.3-1.29 1 1 0 0 0-.01-.156" style="color: rgb(255, 255, 255); fill: url(&quot;#b49cc61d-635f-45d1-a4e0-a2f91869904e&quot;); fill-opacity: 1; fill-rule: nonzero; stroke: none; stroke-opacity: 1; stroke-width: 1px; stroke-linecap: butt; stroke-linejoin: miter; stroke-miterlimit: 4; stroke-dasharray: none; stroke-dashoffset: 0px; opacity: 1; clip-rule: nonzero; vector-effect: none"/><path d="M8.684 10.135a4.07 4.07 0 0 1-2.211-.651L8.662 15.2l2.173-5.681a4.06 4.06 0 0 1-2.151.616" opacity=".8" class="msportalfx-svg-c01" style="color: rgb(255, 255, 255); fill: rgb(255, 255, 255); fill-opacity: 1; fill-rule: nonzero; stroke: none; stroke-opacity: 1; stroke-width: 1px; stroke-linecap: butt; stroke-linejoin: miter; stroke-miterlimit: 4; stroke-dasharray: none; stroke-dashoffset: 0px; opacity: 0.8; clip-rule: nonzero; vector-effect: none"/><path fill="#767676" d="M14.805 7.227a6.4 6.4 0 0 0-.092-2.543A6.21 6.21 0 0 0 8.888.008a5.54 5.54 0 0 0-5.212 2.764.59.59 0 0 0 .187.812.543.543 0 0 0 .737-.164 4.51 4.51 0 0 1 4.223-2.285 5.08 5.08 0 0 1 4.758 3.679 5.2 5.2 0 0 1 .126 2.137.94.94 0 0 0-.536.589l-.273.9a.94.94 0 1 0 1.8.547l.274-.9a.94.94 0 0 0-.167-.86" style="color: rgb(255, 255, 255); fill: rgb(118, 118, 118); fill-opacity: 1; fill-rule: nonzero; stroke: none; stroke-opacity: 1; stroke-width: 1px; stroke-linecap: butt; stroke-linejoin: miter; stroke-miterlimit: 4; stroke-dasharray: none; stroke-dashoffset: 0px; opacity: 1; clip-rule: nonzero; vector-effect: none"/></g></g></svg>