<svg height="18" width="18" aria-hidden="true" role="presentation" focusable="false" xmlns="http://www.w3.org/2000/svg" xmlns:xlink="http://www.w3.org/1999/xlink" style="color: rgb(33, 33, 33); fill: rgb(33, 33, 33); color: rgb(33, 33, 33); fill: rgb(33, 33, 33); fill-opacity: 1; fill-rule: nonzero; stroke: none; stroke-opacity: 1; stroke-width: 1px; stroke-linecap: butt; stroke-linejoin: miter; stroke-miterlimit: 4; stroke-dasharray: none; stroke-dashoffset: 0px; opacity: 1; clip-rule: nonzero; vector-effect: none" viewBox="0 0 18 18"><defs><linearGradient id="b49cc61d-635f-45d1-a4e0-a2f918699027" x1="6.469" x2="6.469" y1="7.959" y2="18.7" gradientUnits="userSpaceOnUse"><stop offset=".225" stop-color="#50e6ff"/><stop offset="1" stop-color="#198ab3"/></linearGradient><linearGradient id="b49cc61d-635f-45d1-a4e0-a2f918699028" x1="6.197" x2="6.981" y1="2.201" y2="11.953" gradientUnits="userSpaceOnUse"><stop offset=".225" stop-color="#50e6ff"/><stop offset="1" stop-color="#198ab3"/></linearGradient></defs><g style="color: rgb(33, 33, 33); fill: rgb(33, 33, 33); fill-opacity: 1; fill-rule: nonzero; stroke: none; stroke-opacity: 1; stroke-width: 1px; stroke-linecap: butt; stroke-linejoin: miter; stroke-miterlimit: 4; stroke-dasharray: none; stroke-dashoffset: 0px; opacity: 1; clip-rule: nonzero; vector-effect: none; color: rgb(33, 33, 33); fill: rgb(33, 33, 33)"><defs style="color: rgb(255, 255, 255); fill: rgb(50, 49, 48); fill-opacity: 1; fill-rule: nonzero; stroke: none; stroke-opacity: 1; stroke-width: 1px; stroke-linecap: butt; stroke-linejoin: miter; stroke-miterlimit: 4; stroke-dasharray: none; stroke-dashoffset: 0px; opacity: 1; clip-rule: nonzero; vector-effect: none"/><path fill="url(#b49cc61d-635f-45d1-a4e0-a2f918699027)" d="M11.783 16.761a1.15 1.15 0 0 0 1.154-1.146 1 1 0 0 0-.008-.139c-.452-3.615-2.515-6.56-6.45-6.56-4 0-6.07 2.493-6.473 6.57a1.16 1.16 0 0 0 1.032 1.269 1 1 0 0 0 .116.006Z" style="color: rgb(255, 255, 255); fill: url(&quot;#b49cc61d-635f-45d1-a4e0-a2f918699027&quot;); fill-opacity: 1; fill-rule: nonzero; stroke: none; stroke-opacity: 1; stroke-width: 1px; stroke-linecap: butt; stroke-linejoin: miter; stroke-miterlimit: 4; stroke-dasharray: none; stroke-dashoffset: 0px; opacity: 1; clip-rule: nonzero; vector-effect: none"/><path fill="#fff" d="M6.541 9.773A3.6 3.6 0 0 1 4.577 9.2l1.944 5.08 1.931-5.051a3.6 3.6 0 0 1-1.911.544" opacity=".8" style="color: rgb(255, 255, 255); fill: rgb(255, 255, 255); fill-opacity: 1; fill-rule: nonzero; stroke: none; stroke-opacity: 1; stroke-width: 1px; stroke-linecap: butt; stroke-linejoin: miter; stroke-miterlimit: 4; stroke-dasharray: none; stroke-dashoffset: 0px; opacity: 0.8; clip-rule: nonzero; vector-effect: none"/><circle cx="6.514" cy="6.146" r="3.628" fill="url(#b49cc61d-635f-45d1-a4e0-a2f918699028)" style="color: rgb(255, 255, 255); fill: url(&quot;#b49cc61d-635f-45d1-a4e0-a2f918699028&quot;); fill-opacity: 1; fill-rule: nonzero; stroke: none; stroke-opacity: 1; stroke-width: 1px; stroke-linecap: butt; stroke-linejoin: miter; stroke-miterlimit: 4; stroke-dasharray: none; stroke-dashoffset: 0px; opacity: 1; clip-rule: nonzero; vector-effect: none"/><path fill="#0078d4" d="M18 8.611V7.127l-.208-.078-1.592-.521-.416-1.015L16.6 3.8l-1.047-1.046-.208.1-1.483.754-1.015-.408-.647-1.8h-1.488l-.078.208-.52 1.592-1.009.414a3.6 3.6 0 0 1 .966 1.833 2.851 2.851 0 1 1 1.422 5.32 3 3 0 0 1-.641-.078 7.4 7.4 0 0 1 1.68 2.972l.341-1.039 1.015-.417 1.717.807 1.042-1.041-.1-.208-.754-1.484.407-1.018Z" style="color: rgb(255, 255, 255); fill: rgb(0, 120, 212); fill-opacity: 1; fill-rule: nonzero; stroke: none; stroke-opacity: 1; stroke-width: 1px; stroke-linecap: butt; stroke-linejoin: miter; stroke-miterlimit: 4; stroke-dasharray: none; stroke-dashoffset: 0px; opacity: 1; clip-rule: nonzero; vector-effect: none"/></g></svg>