<svg height="18" width="18" aria-hidden="true" role="presentation" focusable="false" xmlns="http://www.w3.org/2000/svg" xmlns:xlink="http://www.w3.org/1999/xlink" style="color: rgb(41, 40, 39); fill: rgb(15, 15, 15); color: rgb(41, 40, 39); fill: rgb(15, 15, 15); fill-opacity: 1; fill-rule: nonzero; stroke: none; stroke-opacity: 1; stroke-width: 1px; stroke-linecap: butt; stroke-linejoin: miter; stroke-miterlimit: 4; stroke-dasharray: none; stroke-dashoffset: 0px; opacity: 1; clip-rule: nonzero; vector-effect: none" viewBox="0 0 18 18"><defs><linearGradient id="b49cc61d-635f-45d1-a4e0-a2f918699046" x1="9" y1="17" x2="9" y2="1" gradientUnits="userSpaceOnUse"><stop offset="0" stop-color="#0078d4"/><stop offset=".16" stop-color="#1380da"/><stop offset=".53" stop-color="#3c91e5"/><stop offset=".82" stop-color="#559cec"/><stop offset="1" stop-color="#5ea0ef"/></linearGradient></defs><g style="color: rgb(41, 40, 39); fill: rgb(15, 15, 15); fill-opacity: 1; fill-rule: nonzero; stroke: none; stroke-opacity: 1; stroke-width: 1px; stroke-linecap: butt; stroke-linejoin: miter; stroke-miterlimit: 4; stroke-dasharray: none; stroke-dashoffset: 0px; opacity: 1; clip-rule: nonzero; vector-effect: none; color: rgb(41, 40, 39); fill: rgb(15, 15, 15)"><g style="color: rgb(255, 255, 255); fill: rgb(50, 49, 48); fill-opacity: 1; fill-rule: nonzero; stroke: none; stroke-opacity: 1; stroke-width: 1px; stroke-linecap: butt; stroke-linejoin: miter; stroke-miterlimit: 4; stroke-dasharray: none; stroke-dashoffset: 0px; opacity: 1; clip-rule: nonzero; vector-effect: none"><title style="color: rgb(255, 255, 255); fill: rgb(50, 49, 48); fill-opacity: 1; fill-rule: nonzero; stroke: none; stroke-opacity: 1; stroke-width: 1px; stroke-linecap: butt; stroke-linejoin: miter; stroke-miterlimit: 4; stroke-dasharray: none; stroke-dashoffset: 0px; opacity: 1; clip-rule: nonzero; vector-effect: none"/><defs style="color: rgb(255, 255, 255); fill: rgb(50, 49, 48); fill-opacity: 1; fill-rule: nonzero; stroke: none; stroke-opacity: 1; stroke-width: 1px; stroke-linecap: butt; stroke-linejoin: miter; stroke-miterlimit: 4; stroke-dasharray: none; stroke-dashoffset: 0px; opacity: 1; clip-rule: nonzero; vector-effect: none"/><path d="M6.6 12.2h4.8V17H6.6ZM1 5.8h4.8V1H1.67a.67.67 0 0 0-.67.67ZM1.67 17H5.8v-4.8H1v4.13a.67.67 0 0 0 .67.67ZM1 11.4h4.8V6.6H1ZM12.2 17h4.13a.67.67 0 0 0 .67-.67V12.2h-4.8Zm-5.6-5.6h4.8V6.6H6.6Zm5.6 0H17V6.6h-4.8Zm0-10.4v4.8H17V1.67a.67.67 0 0 0-.67-.67ZM6.6 5.8h4.8V1H6.6Z" fill="url(#b49cc61d-635f-45d1-a4e0-a2f918699046)" style="color: rgb(255, 255, 255); fill: url(&quot;#b49cc61d-635f-45d1-a4e0-a2f918699046&quot;); fill-opacity: 1; fill-rule: nonzero; stroke: none; stroke-opacity: 1; stroke-width: 1px; stroke-linecap: butt; stroke-linejoin: miter; stroke-miterlimit: 4; stroke-dasharray: none; stroke-dashoffset: 0px; opacity: 1; clip-rule: nonzero; vector-effect: none"/></g></g></svg>